<?xml version="1.0" encoding="UTF-8"?>
<!DOCTYPE svg PUBLIC "-//W3C//DTD SVG 1.1//EN" "http://www.w3.org/Graphics/SVG/1.1/DTD/svg11.dtd">
<!-- Creator: CorelDRAW -->
<svg xmlns="http://www.w3.org/2000/svg" xml:space="preserve" width="10.7366in" height="15.967in" version="1.1" style="shape-rendering:geometricPrecision; text-rendering:geometricPrecision; image-rendering:optimizeQuality; fill-rule:evenodd; clip-rule:evenodd"
viewBox="0 0 10734.05 15963.29"
 xmlns:xlink="http://www.w3.org/1999/xlink"
 xmlns:xodm="http://www.corel.com/coreldraw/odm/2003">
 <defs>
  <style type="text/css">
   <![CDATA[
    .str0 {stroke:#1DBAC0;stroke-width:7.87;stroke-miterlimit:2.61313}
    .fil1 {fill:#1DBAC0}
    .fil0 {fill:#42C886}
   ]]>
  </style>
 </defs>
 <g id="Layer_x0020_1">
  <metadata id="CorelCorpID_0Corel-Layer"/>
  <g id="_2262662813216">
   <path class="fil0" d="M5630.31 10200.96c258.79,143.65 1209.96,-145.22 1495.33,-296.73 406.7,-215.92 698.76,-528.28 852.61,-1053.25 347.4,-1185.43 -683.08,-2058.55 -1232.57,-2453.91 -469.42,-337.75 -2013.31,-1282.99 -2243.12,-1523.28 -836.8,-874.88 -413.37,-1848.92 352.12,-2036.77 378.02,-92.76 284.63,22.59 359.2,-130.01 -45.09,-91.98 -37.48,-98.96 -363.93,-66.67 -379.07,37.51 -792.59,127.25 -1121.28,297.48 -413.04,213.91 -720.1,517.58 -884.34,1018.1 -651.65,1985.86 2825.57,3030.49 3519.32,3933.76 734.51,956.34 383.87,1959.91 -417.04,2146.65 -415.22,96.81 -290.66,-41.54 -316.3,164.64z"/>
   <path class="fil1" d="M5210.48 10200.96c-19.18,-204.17 115.07,-79.12 -348.86,-174.66 -1357.26,-279.53 -1477.69,-2169.92 -1484.21,-3354.73 -1.27,-232.26 41.07,-289 -78.62,-436.08 -97.17,-119.39 -180.9,-190.18 -273.62,-281.01 -431.33,-422.52 -646.71,-862.38 -689.44,-1499.7 -631.14,881.39 -575.68,2940.87 -74.38,3928.65 292.66,576.66 642.91,993.91 1115.28,1304.3 235.21,154.54 510.57,280.57 810.75,378.22 179.71,58.46 692.64,176.16 895.42,162.09l127.69 -27.08z"/>
   <path class="fil1 str0" d="M897.77 5613.26c0,-2993.17 2745.29,-5243.54 5452.85,-4550.17 862.88,220.96 1548.9,608.38 2167.22,1254.69 1205.23,1259.77 1590.76,3042.01 1106.43,4756.55 -233.02,824.82 -452.93,1376.11 -820.45,2133.52l-749.42 1366.44c-213.41,355.86 -2502.94,3903.72 -2687.37,4045.08 -90.34,-69.23 -1769.07,-2588.5 -2026.06,-2991.65 -983.15,-1542.27 -2075.32,-3358.81 -2371.24,-5217.16 -35.29,-221.49 -71.97,-569.32 -71.97,-797.29zm-893.84 -249.3c0,1581.81 256.88,2217.89 791.85,3565.76 539.11,1358.25 1669.87,3035.32 2461.68,4249.96 131.56,201.82 254.58,383.34 394.07,585.07l964.7 1421.74c176.18,277.68 433.04,772.87 691.18,772.87 391.22,0 368.23,-129.92 604.3,-458.7 596.19,-830.29 1325.64,-2015.95 1932.82,-2870.98l1773.24 -3006.76c517.88,-1083.43 1112.33,-2525.45 1112.33,-3760.34 0,-1024.12 -95.91,-1778.4 -506.06,-2649.3 -410.95,-872.62 -1000.23,-1621.68 -1758.14,-2181.18 -773.63,-571.13 -1830.61,-1028.15 -2890.32,-1028.15 -967.45,0 -1691.3,111.01 -2503.23,529.31 -298.02,153.55 -545.34,307.18 -804.37,498.71 -269.6,199.36 -458.12,370.8 -692.4,615.82 -456.76,477.75 -780.48,960.05 -1065.6,1565.49 -235.61,500.26 -506.06,1408.2 -506.06,2150.69z"/>
   <path class="fil1" d="M5633.18 2667.37c15.84,215.42 -113.67,76.33 331.59,189.74 1019.67,259.72 1287.14,1487.93 1381.46,2420.47 27.95,276.34 16.6,806.98 59.71,1028.7 59.32,305.23 1055.55,753.11 1053.82,2194.03 319.65,-407.51 464.86,-1327.91 475.31,-1947.02 16.56,-979.44 -332.71,-2260.5 -992.79,-2899.11 -191.68,-185.45 -257.11,-266.98 -514.79,-436.76 -297.89,-196.25 -1373.13,-730.95 -1794.3,-550.05z"/>
  </g>
 </g>
</svg>
