<?xml version="1.0" encoding="UTF-8"?>
<!DOCTYPE svg PUBLIC "-//W3C//DTD SVG 1.1//EN" "http://www.w3.org/Graphics/SVG/1.1/DTD/svg11.dtd">
<!-- Creator: CorelDRAW -->
<svg xmlns="http://www.w3.org/2000/svg" xml:space="preserve" width="4.20394in" height="4.20394in" version="1.1" style="shape-rendering:geometricPrecision; text-rendering:geometricPrecision; image-rendering:optimizeQuality; fill-rule:evenodd; clip-rule:evenodd"
viewBox="0 0 4203.94 4203.94"
 xmlns:xlink="http://www.w3.org/1999/xlink"
 xmlns:xodm="http://www.corel.com/coreldraw/odm/2003">
 <defs>
  <style type="text/css">
   <![CDATA[
    .str1 {stroke:#FEFEFE;stroke-width:6.94;stroke-miterlimit:2.61313}
    .str0 {stroke:#1DBAC0;stroke-width:6.94;stroke-miterlimit:2.61313}
    .fil1 {fill:#FEFEFE}
    .fil0 {fill:#1DBAC0}
   ]]>
  </style>
 </defs>
 <g id="Layer_x0020_1">
  <metadata id="CorelCorpID_0Corel-Layer"/>
  <g id="_2959931576320">
   <circle class="fil0 str0" cx="2101.97" cy="2101.97" r="2098.5"/>
   <path class="fil1 str1" d="M1757.14 2351.9c7.53,-62.59 -178.52,-302.41 -212.51,-417.27 -72.91,-115.72 -98.72,-299.83 -19.35,-422.22 31.61,-48.61 18.07,-90.76 18.07,-158.09 0,-666.78 1167.28,-666.78 1167.28,0 0,84.31 -19.15,104.1 26.24,170.56 76.36,110.77 37.21,307.36 -27.31,410.17 -41.51,120.67 -236.59,348.87 -223.04,417.27 12.26,341.99 -731.3,330.59 -729.36,0l-0.01 -0.42zm425.45 591.49l41.07 0c36.93,-0.12 66.88,-29.97 67.11,-66.89l0 -109.04c0,-37.06 -30.06,-67.12 -67.11,-67.12l-243.26 0.01c-37,0.1 -66.99,30.09 -67.1,67.1l-0.01 109.06c0.24,36.96 30.15,66.87 67.12,67.1l41.72 0.01 -80.23 406.09 317.47 0 -76.79 -406.31zm-1402.17 406.31c31.61,-408.67 -48.61,-392.1 293.6,-520.08 167.76,-64.17 329.38,-146.1 480.71,-243.13l292.53 763.22 -1066.84 0zm1882.89 -797.98c137.57,92.11 286.82,166.73 443.22,221.26 319.48,106.31 319.48,121.16 316.47,576.71l-1062.76 0 303.06 -797.98z"/>
  </g>
 </g>
</svg>
