<?xml version="1.0" encoding="UTF-8"?>
<!DOCTYPE svg PUBLIC "-//W3C//DTD SVG 1.1//EN" "http://www.w3.org/Graphics/SVG/1.1/DTD/svg11.dtd">
<!-- Creator: CorelDRAW -->
<svg xmlns="http://www.w3.org/2000/svg" xml:space="preserve" width="18.1783in" height="3.22012in" version="1.1" style="shape-rendering:geometricPrecision; text-rendering:geometricPrecision; image-rendering:optimizeQuality; fill-rule:evenodd; clip-rule:evenodd"
viewBox="0 0 18557.48 3287.28"
 xmlns:xlink="http://www.w3.org/1999/xlink"
 xmlns:xodm="http://www.corel.com/coreldraw/odm/2003">
 <defs>
  <style type="text/css">
   <![CDATA[
    .str0 {stroke:#1DBAC0;stroke-width:8.04;stroke-miterlimit:2.61313}
    .fil1 {fill:#1DBAC0}
    .fil2 {fill:#42C886}
    .fil0 {fill:#5B5B5B;fill-rule:nonzero}
    .fil3 {fill:url(#id0);fill-rule:nonzero}
   ]]>
  </style>
  <linearGradient id="id0" gradientUnits="userSpaceOnUse" x1="2684.61" y1="1167.99" x2="18557.48" y2="1167.99">
   <stop offset="0" style="stop-opacity:1; stop-color:#42C886"/>
   <stop offset="1" style="stop-opacity:1; stop-color:#1DBAC0"/>
  </linearGradient>
 </defs>
 <g id="Layer_x0020_1">
  <metadata id="CorelCorpID_0Corel-Layer"/>
  <g id="_2970974502384">
   <path class="fil0" d="M2952.02 3161.02l0 -454.3 328.03 0 0 53.3 -267.76 0 0 139.59 250.62 0 0 53.3 -250.62 0 0 154.82 278.55 0 0 53.3 -338.82 0zm538.36 0l0 -329.3 50.13 0 0 46.74c24.11,-35.85 59.01,-53.72 104.59,-53.72 19.88,0 38.07,3.6 54.67,10.68 16.6,7.09 29.08,16.49 37.33,28.02 8.25,11.53 14.07,25.28 17.34,41.14 2.01,10.36 3.07,28.44 3.07,54.25l0 202.19 -55.83 0 0 -200.08c0,-22.74 -2.11,-39.76 -6.45,-50.97 -4.34,-11.21 -12.06,-20.2 -23.05,-26.96 -11,-6.66 -24.01,-10.05 -38.81,-10.05 -23.69,0 -44.1,7.51 -61.34,22.63 -17.24,15.02 -25.8,43.68 -25.8,85.76l0 179.67 -55.84 0zm597.47 -49.81l7.62 49.28c-15.65,3.28 -29.72,4.97 -41.98,4.97 -20.2,0 -35.85,-3.17 -47.06,-9.62 -11.1,-6.45 -18.93,-14.81 -23.48,-25.28 -4.55,-10.47 -6.77,-32.46 -6.77,-65.99l0 -189.71 -41.24 0 0 -43.15 41.24 0 0 -81.43 55.84 -33.52 0 114.95 55.83 0 0 43.15 -55.83 0 0 192.89c0,15.97 0.95,26.23 2.96,30.77 1.9,4.55 5.08,8.14 9.52,10.89 4.44,2.64 10.78,4.02 19.03,4.02 6.13,0 14.28,-0.74 24.32,-2.22zm177.86 49.81l0 -329.3 50.13 0 0 50.44c12.8,-23.37 24.64,-38.81 35.53,-46.22 10.89,-7.51 22.84,-11.21 35.85,-11.21 18.83,0 37.96,5.92 57.43,17.66l-19.88 51.5c-13.54,-7.61 -27.07,-11.42 -40.61,-11.42 -12.16,0 -23.05,3.7 -32.68,11 -9.62,7.29 -16.49,17.45 -20.62,30.46 -6.24,19.77 -9.3,41.45 -9.3,65.03l0 172.05 -55.84 0zm559.93 -106.6l57.74 7.61c-8.99,33.52 -25.8,59.64 -50.34,78.15 -24.53,18.5 -55.84,27.81 -94.01,27.81 -48.01,0 -86.08,-14.81 -114.21,-44.42 -28.13,-29.5 -42.19,-71.07 -42.19,-124.47 0,-55.2 14.17,-98.13 42.62,-128.59 28.44,-30.56 65.35,-45.79 110.72,-45.79 43.88,0 79.74,14.91 107.55,44.84 27.81,29.93 41.77,72.01 41.77,126.26 0,3.28 -0.11,8.25 -0.32,14.81l-245.23 0c2.12,36.06 12.27,63.77 30.67,82.91 18.3,19.14 41.24,28.76 68.63,28.76 20.41,0 37.86,-5.39 52.24,-16.18 14.48,-10.78 25.91,-28.02 34.37,-51.71zm-182.73 -89.47l183.37 0c-2.43,-27.7 -9.52,-48.43 -21.04,-62.28 -17.66,-21.47 -40.71,-32.25 -68.95,-32.25 -25.59,0 -47.06,8.56 -64.51,25.7 -17.34,17.13 -26.97,40.08 -28.87,68.84zm434.4 322.33l0 -455.57 50.76 0 0 43.25c11.95,-16.71 25.49,-29.29 40.61,-37.65 15.02,-8.35 33.31,-12.58 54.78,-12.58 28.13,0 52.88,7.19 74.34,21.68 21.47,14.38 37.65,34.79 48.64,61.02 10.89,26.33 16.39,55.09 16.39,86.5 0,33.52 -6.02,63.77 -18.08,90.73 -12.05,26.86 -29.61,47.48 -52.66,61.86 -22.95,14.28 -47.16,21.47 -72.55,21.47 -18.61,0 -35.32,-3.91 -50.02,-11.74 -14.81,-7.83 -26.86,-17.66 -36.38,-29.61l0 160.63 -55.84 0zm50.76 -288.91c0,42.19 8.56,73.39 25.59,93.59 17.13,20.2 37.86,30.35 62.18,30.35 24.75,0 45.9,-10.47 63.45,-31.41 17.66,-20.94 26.44,-53.3 26.44,-97.18 0,-41.88 -8.56,-73.18 -25.8,-94.01 -17.24,-20.83 -37.75,-31.2 -61.65,-31.2 -23.69,0 -44.63,11.1 -62.81,33.21 -18.3,22.21 -27.39,54.35 -27.39,96.66zm424.89 162.64l0 -329.3 50.13 0 0 50.44c12.8,-23.37 24.64,-38.81 35.53,-46.22 10.89,-7.51 22.84,-11.21 35.85,-11.21 18.83,0 37.96,5.92 57.43,17.66l-19.88 51.5c-13.54,-7.61 -27.07,-11.42 -40.61,-11.42 -12.16,0 -23.05,3.7 -32.68,11 -9.62,7.29 -16.49,17.45 -20.62,30.46 -6.24,19.77 -9.3,41.45 -9.3,65.03l0 172.05 -55.84 0zm559.93 -106.6l57.74 7.61c-8.99,33.52 -25.8,59.64 -50.34,78.15 -24.53,18.5 -55.84,27.81 -94.01,27.81 -48.01,0 -86.08,-14.81 -114.21,-44.42 -28.13,-29.5 -42.19,-71.07 -42.19,-124.47 0,-55.2 14.17,-98.13 42.62,-128.59 28.44,-30.56 65.35,-45.79 110.72,-45.79 43.88,0 79.74,14.91 107.55,44.84 27.81,29.93 41.77,72.01 41.77,126.26 0,3.28 -0.11,8.25 -0.32,14.81l-245.23 0c2.12,36.06 12.27,63.77 30.67,82.91 18.3,19.14 41.24,28.76 68.63,28.76 20.41,0 37.86,-5.39 52.24,-16.18 14.48,-10.78 25.91,-28.02 34.37,-51.71zm-182.73 -89.47l183.37 0c-2.43,-27.7 -9.52,-48.43 -21.04,-62.28 -17.66,-21.47 -40.71,-32.25 -68.95,-32.25 -25.59,0 -47.06,8.56 -64.51,25.7 -17.34,17.13 -26.97,40.08 -28.87,68.84zm434.4 196.06l0 -329.3 50.13 0 0 46.74c24.11,-35.85 59.01,-53.72 104.59,-53.72 19.88,0 38.07,3.6 54.67,10.68 16.6,7.09 29.08,16.49 37.33,28.02 8.25,11.53 14.07,25.28 17.34,41.14 2.01,10.36 3.07,28.44 3.07,54.25l0 202.19 -55.83 0 0 -200.08c0,-22.74 -2.11,-39.76 -6.45,-50.97 -4.34,-11.21 -12.06,-20.2 -23.05,-26.96 -11,-6.66 -24.01,-10.05 -38.81,-10.05 -23.69,0 -44.1,7.51 -61.34,22.63 -17.24,15.02 -25.8,43.68 -25.8,85.76l0 179.67 -55.84 0zm700.89 -106.6l57.74 7.61c-8.99,33.52 -25.8,59.64 -50.34,78.15 -24.53,18.5 -55.84,27.81 -94.01,27.81 -48.01,0 -86.08,-14.81 -114.21,-44.42 -28.13,-29.5 -42.19,-71.07 -42.19,-124.47 0,-55.2 14.17,-98.13 42.62,-128.59 28.44,-30.56 65.35,-45.79 110.72,-45.79 43.88,0 79.74,14.91 107.55,44.84 27.81,29.93 41.77,72.01 41.77,126.26 0,3.28 -0.11,8.25 -0.32,14.81l-245.23 0c2.12,36.06 12.27,63.77 30.67,82.91 18.3,19.14 41.24,28.76 68.63,28.76 20.41,0 37.86,-5.39 52.24,-16.18 14.48,-10.78 25.91,-28.02 34.37,-51.71zm-182.73 -89.47l183.37 0c-2.43,-27.7 -9.52,-48.43 -21.04,-62.28 -17.66,-21.47 -40.71,-32.25 -68.95,-32.25 -25.59,0 -47.06,8.56 -64.51,25.7 -17.34,17.13 -26.97,40.08 -28.87,68.84zm649.5 196.06l0 -48.96c-25.59,37.33 -60.28,55.94 -104.16,55.94 -19.35,0 -37.43,-3.7 -54.25,-11.1 -16.81,-7.51 -29.29,-16.82 -37.43,-28.03 -8.14,-11.31 -13.85,-25.06 -17.13,-41.34 -2.22,-11 -3.38,-28.34 -3.38,-52.03l0 -203.78 55.83 0 0 182.21c0,29.08 1.17,48.75 3.38,58.8 3.49,14.7 10.89,26.12 22.31,34.47 11.31,8.36 25.27,12.59 41.98,12.59 16.71,0 32.36,-4.23 46.96,-12.8 14.59,-8.56 24.95,-20.3 31.09,-35 6.03,-14.7 9.1,-36.17 9.1,-64.19l0 -176.07 55.84 0 0 329.3 -50.13 0zm260.55 0l0 -329.3 50.13 0 0 50.44c12.8,-23.37 24.64,-38.81 35.53,-46.22 10.89,-7.51 22.84,-11.21 35.85,-11.21 18.83,0 37.96,5.92 57.43,17.66l-19.88 51.5c-13.54,-7.61 -27.07,-11.42 -40.61,-11.42 -12.16,0 -23.05,3.7 -32.68,11 -9.62,7.29 -16.49,17.45 -20.62,30.46 -6.24,19.77 -9.3,41.45 -9.3,65.03l0 172.05 -55.84 0zm313.11 -98.35l55.2 -8.88c3.07,22.1 11.74,39.02 25.91,50.87 14.17,11.74 34.05,17.66 59.43,17.66 25.7,0 44.73,-5.18 57.21,-15.65 12.37,-10.37 18.61,-22.63 18.61,-36.69 0,-12.58 -5.6,-22.53 -16.71,-29.72 -7.83,-4.97 -26.86,-11.21 -57.1,-18.93 -40.82,-10.26 -69.06,-19.14 -84.92,-26.65 -15.76,-7.61 -27.71,-17.98 -35.85,-31.3 -8.14,-13.22 -12.27,-27.92 -12.27,-43.99 0,-14.7 3.38,-28.23 10.05,-40.71 6.77,-12.48 15.86,-22.84 27.39,-31.09 8.67,-6.35 20.52,-11.74 35.43,-16.18 15.02,-4.44 30.98,-6.66 48.11,-6.66 25.8,0 48.43,3.7 67.89,11.21 19.57,7.4 33.95,17.56 43.25,30.25 9.2,12.79 15.65,29.82 19.14,51.18l-54.57 7.62c-2.43,-17.13 -9.62,-30.56 -21.47,-40.19 -11.84,-9.62 -28.55,-14.38 -50.23,-14.38 -25.49,0 -43.78,4.23 -54.67,12.69 -10.89,8.46 -16.39,18.4 -16.39,29.72 0,7.19 2.22,13.75 6.77,19.57 4.55,5.92 11.63,10.89 21.36,14.8 5.6,2.11 21.89,6.87 49.17,14.28 39.34,10.47 66.83,19.14 82.48,25.8 15.65,6.66 27.92,16.5 36.8,29.19 8.99,12.8 13.43,28.66 13.43,47.69 0,18.5 -5.39,35.96 -16.28,52.35 -10.9,16.39 -26.55,29.08 -46.96,38.07 -20.51,8.99 -43.67,13.43 -69.47,13.43 -42.72,0 -75.4,-8.89 -97.82,-26.55 -22.42,-17.76 -36.69,-43.99 -42.93,-78.78zm749.85 -47.59l56.47 -5.08c2.64,22.84 8.88,41.56 18.72,56.26 9.83,14.59 25.06,26.44 45.69,35.53 20.62,8.99 43.88,13.53 69.69,13.53 22.95,0 43.15,-3.38 60.7,-10.26 17.56,-6.87 30.56,-16.29 39.13,-28.23 8.57,-11.95 12.9,-24.95 12.9,-38.92 0,-14.17 -4.12,-26.54 -12.37,-37.22 -8.25,-10.57 -21.89,-19.46 -40.93,-26.76 -12.16,-4.65 -39.13,-12.06 -80.9,-22.1 -41.77,-10.05 -70.96,-19.46 -87.67,-28.34 -21.68,-11.42 -37.75,-25.59 -48.33,-42.41 -10.68,-16.81 -15.97,-35.74 -15.97,-56.57 0,-23.05 6.56,-44.52 19.57,-64.4 13.01,-19.99 31.94,-35.11 57,-45.47 24.95,-10.36 52.77,-15.55 83.33,-15.55 33.63,0 63.35,5.39 89.04,16.29 25.69,10.79 45.47,26.76 59.32,47.9 13.85,21.04 21.26,44.95 22.31,71.59l-57.74 4.44c-3.07,-28.66 -13.54,-50.34 -31.41,-64.93 -17.87,-14.7 -44.31,-22 -79.21,-22 -36.38,0 -62.92,6.66 -79.52,19.99 -16.6,13.32 -24.95,29.4 -24.95,48.22 0,16.29 5.92,29.72 17.66,40.29 11.63,10.47 41.77,21.36 90.62,32.36 48.86,11.1 82.38,20.73 100.57,28.98 26.33,12.16 45.89,27.49 58.48,46.21 12.58,18.61 18.82,40.08 18.82,64.4 0,24.22 -6.87,46.85 -20.73,68.21 -13.85,21.36 -33.63,37.96 -59.54,49.81 -25.91,11.84 -54.99,17.76 -87.46,17.76 -41.03,0 -75.4,-6.02 -103.1,-17.98 -27.81,-11.95 -49.49,-29.93 -65.25,-54.04 -15.86,-24 -24.11,-51.18 -24.95,-81.53zm559.3 272.2l0 -455.57 50.76 0 0 43.25c11.95,-16.71 25.49,-29.29 40.61,-37.65 15.02,-8.35 33.31,-12.58 54.78,-12.58 28.13,0 52.88,7.19 74.34,21.68 21.47,14.38 37.65,34.79 48.64,61.02 10.89,26.33 16.39,55.09 16.39,86.5 0,33.52 -6.02,63.77 -18.08,90.73 -12.05,26.86 -29.61,47.48 -52.66,61.86 -22.95,14.28 -47.16,21.47 -72.55,21.47 -18.61,0 -35.32,-3.91 -50.02,-11.74 -14.81,-7.83 -26.86,-17.66 -36.38,-29.61l0 160.63 -55.84 0zm50.76 -288.91c0,42.19 8.56,73.39 25.59,93.59 17.13,20.2 37.86,30.35 62.18,30.35 24.75,0 45.9,-10.47 63.45,-31.41 17.66,-20.94 26.44,-53.3 26.44,-97.18 0,-41.88 -8.56,-73.18 -25.8,-94.01 -17.24,-20.83 -37.75,-31.2 -61.65,-31.2 -23.69,0 -44.63,11.1 -62.81,33.21 -18.3,22.21 -27.39,54.35 -27.39,96.66zm640.62 121.4c-20.73,17.66 -40.71,30.03 -59.85,37.33 -19.14,7.3 -39.66,10.9 -61.65,10.9 -36.17,0 -63.98,-8.78 -83.44,-26.44 -19.46,-17.56 -29.19,-40.08 -29.19,-67.47 0,-16.07 3.7,-30.77 11,-44.1 7.4,-13.32 17.02,-23.9 28.87,-31.94 11.95,-8.04 25.27,-14.17 40.18,-18.3 11,-2.85 27.6,-5.6 49.7,-8.36 45.05,-5.29 78.36,-11.74 99.62,-19.14 0.21,-7.61 0.32,-12.48 0.32,-14.49 0,-22.63 -5.29,-38.6 -15.86,-47.9 -14.28,-12.58 -35.53,-18.82 -63.66,-18.82 -26.33,0 -45.79,4.65 -58.27,13.85 -12.58,9.2 -21.78,25.49 -27.81,48.96l-54.57 -7.62c4.97,-23.37 13.11,-42.3 24.54,-56.68 11.42,-14.38 27.92,-25.38 49.49,-33.21 21.47,-7.72 46.53,-11.64 74.87,-11.64 28.13,0 51.07,3.28 68.74,9.94 17.56,6.66 30.56,14.91 38.81,24.95 8.25,10.05 14.06,22.74 17.45,38.07 1.8,9.52 2.75,26.65 2.75,51.29l0 74.02c0,51.71 1.17,84.39 3.49,98.24 2.22,13.85 6.88,27.07 13.64,39.76l-58.37 0c-5.61,-11.74 -9.2,-25.49 -10.79,-41.24zm-4.44 -123.73c-20.3,8.25 -50.76,15.23 -91.37,20.94 -23.05,3.28 -39.34,6.98 -48.86,11.1 -9.52,4.13 -16.82,10.15 -22,17.98 -5.18,7.93 -7.83,16.71 -7.83,26.44 0,14.7 5.6,27.07 16.92,36.91 11.31,9.83 27.81,14.81 49.49,14.81 21.47,0 40.61,-4.65 57.42,-14.07 16.71,-9.3 29.08,-22.1 36.9,-38.28 6.03,-12.58 8.99,-31.09 8.99,-55.52l0.32 -20.3zm480.72 44.42l54.57 7.61c-6.03,37.54 -21.26,66.83 -45.9,88.09 -24.64,21.25 -54.99,31.83 -90.84,31.83 -44.94,0 -81.11,-14.7 -108.39,-44.1 -27.39,-29.4 -41.03,-71.49 -41.03,-126.26 0,-35.53 5.92,-66.52 17.66,-93.17 11.74,-26.54 29.61,-46.53 53.72,-59.75 24.01,-13.32 50.13,-19.99 78.47,-19.99 35.64,0 64.93,8.99 87.56,27.07 22.74,18.08 37.33,43.78 43.68,76.99l-53.93 8.25c-5.18,-22.1 -14.28,-38.7 -27.49,-49.91 -13.11,-11.1 -28.97,-16.71 -47.59,-16.71 -28.13,0 -50.97,10.05 -68.63,30.14 -17.56,20.2 -26.33,51.92 -26.33,95.49 0,44.2 8.46,76.25 25.38,96.23 17.02,19.98 39.13,30.03 66.3,30.03 22,0 40.29,-6.66 54.89,-20.09 14.7,-13.32 24,-33.95 27.92,-61.76zm450.17 13.96l57.74 7.61c-8.99,33.52 -25.8,59.64 -50.34,78.15 -24.53,18.5 -55.84,27.81 -94.01,27.81 -48.01,0 -86.08,-14.81 -114.21,-44.42 -28.13,-29.5 -42.19,-71.07 -42.19,-124.47 0,-55.2 14.17,-98.13 42.62,-128.59 28.44,-30.56 65.35,-45.79 110.72,-45.79 43.88,0 79.74,14.91 107.55,44.84 27.81,29.93 41.77,72.01 41.77,126.26 0,3.28 -0.11,8.25 -0.32,14.81l-245.23 0c2.12,36.06 12.27,63.77 30.67,82.91 18.3,19.14 41.24,28.76 68.63,28.76 20.41,0 37.86,-5.39 52.24,-16.18 14.48,-10.78 25.91,-28.02 34.37,-51.71zm-182.73 -89.47l183.37 0c-2.43,-27.7 -9.52,-48.43 -21.04,-62.28 -17.66,-21.47 -40.71,-32.25 -68.95,-32.25 -25.59,0 -47.06,8.56 -64.51,25.7 -17.34,17.13 -26.97,40.08 -28.87,68.84zm994.02 142.13c-18.4,20.3 -38.49,35.53 -60.17,45.69 -21.68,10.15 -45.15,15.23 -70.43,15.23 -46.53,0 -83.43,-15.65 -110.72,-46.96 -22.1,-25.59 -33.21,-54.04 -33.21,-85.55 0,-28.02 8.99,-53.3 27.07,-75.82 18.08,-22.63 45.15,-42.41 81.01,-59.54 -20.62,-23.48 -34.37,-42.62 -41.24,-57.32 -6.87,-14.59 -10.36,-28.76 -10.36,-42.41 0,-27.29 10.68,-50.97 32.14,-71.07 21.36,-20.2 48.33,-30.24 80.9,-30.24 30.98,0 56.47,9.52 76.24,28.55 19.78,19.04 29.61,41.98 29.61,68.63 0,43.25 -28.76,80.26 -86.4,110.82l82.27 103.21c9.41,-18.19 16.71,-39.23 21.89,-63.24l57.74 12.48c-9.94,39.55 -23.37,71.91 -40.4,97.18 20.83,27.6 44.52,50.76 70.85,69.58l-37.44 44.2c-22.42,-14.28 -45.47,-35.53 -69.37,-63.45zm-114.21 -235.93c24.32,-14.38 39.97,-26.86 47.16,-37.65 7.19,-10.78 10.78,-22.74 10.78,-35.85 0,-15.55 -4.97,-28.23 -14.8,-38.07 -9.83,-9.83 -22.21,-14.81 -36.91,-14.81 -15.12,0 -27.81,4.86 -37.86,14.59 -10.04,9.73 -15.12,21.68 -15.12,35.85 0,6.98 1.8,14.48 5.5,22.21 3.6,7.83 8.99,16.07 16.29,24.75l24.96 28.97zm78.67 192.36l-101.73 -127c-30.24,17.87 -50.66,34.47 -61.12,49.8 -10.58,15.34 -15.86,30.46 -15.86,45.47 0,18.3 7.29,37.33 22,57.11 14.59,19.77 35.32,29.61 62.08,29.61 16.71,0 34.05,-5.08 51.81,-15.33 17.87,-10.26 32.15,-23.48 42.83,-39.66zm609.2 -48.43l56.47 -5.08c2.64,22.84 8.88,41.56 18.72,56.26 9.83,14.59 25.06,26.44 45.69,35.53 20.62,8.99 43.88,13.53 69.69,13.53 22.95,0 43.15,-3.38 60.7,-10.26 17.56,-6.87 30.56,-16.29 39.13,-28.23 8.57,-11.95 12.9,-24.95 12.9,-38.92 0,-14.17 -4.12,-26.54 -12.37,-37.22 -8.25,-10.57 -21.89,-19.46 -40.93,-26.76 -12.16,-4.65 -39.13,-12.06 -80.9,-22.1 -41.77,-10.05 -70.96,-19.46 -87.67,-28.34 -21.68,-11.42 -37.75,-25.59 -48.33,-42.41 -10.68,-16.81 -15.97,-35.74 -15.97,-56.57 0,-23.05 6.56,-44.52 19.57,-64.4 13.01,-19.99 31.94,-35.11 57,-45.47 24.95,-10.36 52.77,-15.55 83.33,-15.55 33.63,0 63.35,5.39 89.04,16.29 25.69,10.79 45.47,26.76 59.32,47.9 13.85,21.04 21.26,44.95 22.31,71.59l-57.74 4.44c-3.07,-28.66 -13.54,-50.34 -31.41,-64.93 -17.87,-14.7 -44.31,-22 -79.21,-22 -36.38,0 -62.92,6.66 -79.52,19.99 -16.6,13.32 -24.95,29.4 -24.95,48.22 0,16.29 5.92,29.72 17.66,40.29 11.63,10.47 41.77,21.36 90.62,32.36 48.86,11.1 82.38,20.73 100.57,28.98 26.33,12.16 45.89,27.49 58.48,46.21 12.58,18.61 18.82,40.08 18.82,64.4 0,24.22 -6.87,46.85 -20.73,68.21 -13.85,21.36 -33.63,37.96 -59.54,49.81 -25.91,11.84 -54.99,17.76 -87.46,17.76 -41.03,0 -75.4,-6.02 -103.1,-17.98 -27.81,-11.95 -49.49,-29.93 -65.25,-54.04 -15.86,-24 -24.11,-51.18 -24.95,-81.53zm783.91 39.34l57.74 7.61c-8.99,33.52 -25.8,59.64 -50.34,78.15 -24.53,18.5 -55.84,27.81 -94.01,27.81 -48.01,0 -86.08,-14.81 -114.21,-44.42 -28.13,-29.5 -42.19,-71.07 -42.19,-124.47 0,-55.2 14.17,-98.13 42.62,-128.59 28.44,-30.56 65.35,-45.79 110.72,-45.79 43.88,0 79.74,14.91 107.55,44.84 27.81,29.93 41.77,72.01 41.77,126.26 0,3.28 -0.11,8.25 -0.32,14.81l-245.23 0c2.12,36.06 12.27,63.77 30.67,82.91 18.3,19.14 41.24,28.76 68.63,28.76 20.41,0 37.86,-5.39 52.24,-16.18 14.48,-10.78 25.91,-28.02 34.37,-51.71zm-182.73 -89.47l183.37 0c-2.43,-27.7 -9.52,-48.43 -21.04,-62.28 -17.66,-21.47 -40.71,-32.25 -68.95,-32.25 -25.59,0 -47.06,8.56 -64.51,25.7 -17.34,17.13 -26.97,40.08 -28.87,68.84zm433.77 196.06l0 -329.3 50.13 0 0 50.44c12.8,-23.37 24.64,-38.81 35.53,-46.22 10.89,-7.51 22.84,-11.21 35.85,-11.21 18.83,0 37.96,5.92 57.43,17.66l-19.88 51.5c-13.54,-7.61 -27.07,-11.42 -40.61,-11.42 -12.16,0 -23.05,3.7 -32.68,11 -9.62,7.29 -16.49,17.45 -20.62,30.46 -6.24,19.77 -9.3,41.45 -9.3,65.03l0 172.05 -55.84 0zm425.31 0l-124.26 -329.3 59.75 0 70.43 197.22c7.61,21.26 14.7,43.36 21.15,66.3 4.97,-17.34 11.84,-38.17 20.84,-62.6l73.18 -200.92 57.32 0 -124.68 329.3 -53.72 0zm350.66 -390.85l0 -63.45 55.84 0 0 63.45 -55.84 0zm0 390.85l0 -329.3 55.84 0 0 329.3 -55.84 0zm479.46 -120.55l54.57 7.61c-6.03,37.54 -21.26,66.83 -45.9,88.09 -24.64,21.25 -54.99,31.83 -90.84,31.83 -44.94,0 -81.11,-14.7 -108.39,-44.1 -27.39,-29.4 -41.03,-71.49 -41.03,-126.26 0,-35.53 5.92,-66.52 17.66,-93.17 11.74,-26.54 29.61,-46.53 53.72,-59.75 24.01,-13.32 50.13,-19.99 78.47,-19.99 35.64,0 64.93,8.99 87.56,27.07 22.74,18.08 37.33,43.78 43.68,76.99l-53.93 8.25c-5.18,-22.1 -14.28,-38.7 -27.49,-49.91 -13.11,-11.1 -28.97,-16.71 -47.59,-16.71 -28.13,0 -50.97,10.05 -68.63,30.14 -17.56,20.2 -26.33,51.92 -26.33,95.49 0,44.2 8.46,76.25 25.38,96.23 17.02,19.98 39.13,30.03 66.3,30.03 22,0 40.29,-6.66 54.89,-20.09 14.7,-13.32 24,-33.95 27.92,-61.76zm450.17 13.96l57.74 7.61c-8.99,33.52 -25.8,59.64 -50.34,78.15 -24.53,18.5 -55.84,27.81 -94.01,27.81 -48.01,0 -86.08,-14.81 -114.21,-44.42 -28.13,-29.5 -42.19,-71.07 -42.19,-124.47 0,-55.2 14.17,-98.13 42.62,-128.59 28.44,-30.56 65.35,-45.79 110.72,-45.79 43.88,0 79.74,14.91 107.55,44.84 27.81,29.93 41.77,72.01 41.77,126.26 0,3.28 -0.11,8.25 -0.32,14.81l-245.23 0c2.12,36.06 12.27,63.77 30.67,82.91 18.3,19.14 41.24,28.76 68.63,28.76 20.41,0 37.86,-5.39 52.24,-16.18 14.48,-10.78 25.91,-28.02 34.37,-51.71zm-182.73 -89.47l183.37 0c-2.43,-27.7 -9.52,-48.43 -21.04,-62.28 -17.66,-21.47 -40.71,-32.25 -68.95,-32.25 -25.59,0 -47.06,8.56 -64.51,25.7 -17.34,17.13 -26.97,40.08 -28.87,68.84zm1064.66 36.7l60.28 15.22c-12.58,49.39 -35.22,86.93 -67.89,112.84 -32.68,25.91 -72.65,38.91 -119.92,38.91 -48.85,0 -88.62,-9.94 -119.28,-29.93 -30.67,-19.88 -53.93,-48.75 -69.9,-86.5 -15.97,-37.86 -24.01,-78.36 -24.01,-121.72 0,-47.27 8.99,-88.51 27.07,-123.73 18.08,-35.21 43.78,-61.97 77.09,-80.26 33.31,-18.3 70.01,-27.39 109.98,-27.39 45.47,0 83.65,11.53 114.53,34.69 30.98,23.16 52.55,55.62 64.72,97.5l-59.01 13.96c-10.47,-32.99 -25.8,-57.1 -45.79,-72.12 -19.99,-15.12 -45.15,-22.63 -75.51,-22.63 -34.79,0 -63.98,8.35 -87.35,25.06 -23.37,16.71 -39.87,39.23 -49.28,67.36 -9.52,28.23 -14.28,57.32 -14.28,87.24 0,38.6 5.6,72.33 16.81,101.1 11.21,28.87 28.66,50.34 52.35,64.61 23.69,14.28 49.28,21.36 76.88,21.36 33.63,0 61.97,-9.73 85.23,-29.08 23.26,-19.46 39.02,-48.22 47.27,-86.5zm475.65 52.77l57.74 7.61c-8.99,33.52 -25.8,59.64 -50.34,78.15 -24.53,18.5 -55.84,27.81 -94.01,27.81 -48.01,0 -86.08,-14.81 -114.21,-44.42 -28.13,-29.5 -42.19,-71.07 -42.19,-124.47 0,-55.2 14.17,-98.13 42.62,-128.59 28.44,-30.56 65.35,-45.79 110.72,-45.79 43.88,0 79.74,14.91 107.55,44.84 27.81,29.93 41.77,72.01 41.77,126.26 0,3.28 -0.11,8.25 -0.32,14.81l-245.23 0c2.12,36.06 12.27,63.77 30.67,82.91 18.3,19.14 41.24,28.76 68.63,28.76 20.41,0 37.86,-5.39 52.24,-16.18 14.48,-10.78 25.91,-28.02 34.37,-51.71zm-182.73 -89.47l183.37 0c-2.43,-27.7 -9.52,-48.43 -21.04,-62.28 -17.66,-21.47 -40.71,-32.25 -68.95,-32.25 -25.59,0 -47.06,8.56 -64.51,25.7 -17.34,17.13 -26.97,40.08 -28.87,68.84zm434.4 196.06l0 -329.3 50.13 0 0 46.74c24.11,-35.85 59.01,-53.72 104.59,-53.72 19.88,0 38.07,3.6 54.67,10.68 16.6,7.09 29.08,16.49 37.33,28.02 8.25,11.53 14.07,25.28 17.34,41.14 2.01,10.36 3.07,28.44 3.07,54.25l0 202.19 -55.83 0 0 -200.08c0,-22.74 -2.11,-39.76 -6.45,-50.97 -4.34,-11.21 -12.06,-20.2 -23.05,-26.96 -11,-6.66 -24.01,-10.05 -38.81,-10.05 -23.69,0 -44.1,7.51 -61.34,22.63 -17.24,15.02 -25.8,43.68 -25.8,85.76l0 179.67 -55.84 0zm597.47 -49.81l7.62 49.28c-15.65,3.28 -29.72,4.97 -41.98,4.97 -20.2,0 -35.85,-3.17 -47.06,-9.62 -11.1,-6.45 -18.93,-14.81 -23.48,-25.28 -4.55,-10.47 -6.77,-32.46 -6.77,-65.99l0 -189.71 -41.24 0 0 -43.15 41.24 0 0 -81.43 55.84 -33.52 0 114.95 55.83 0 0 43.15 -55.83 0 0 192.89c0,15.97 0.95,26.23 2.96,30.77 1.9,4.55 5.08,8.14 9.52,10.89 4.44,2.64 10.78,4.02 19.03,4.02 6.13,0 14.28,-0.74 24.32,-2.22zm177.86 49.81l0 -329.3 50.13 0 0 50.44c12.8,-23.37 24.64,-38.81 35.53,-46.22 10.89,-7.51 22.84,-11.21 35.85,-11.21 18.83,0 37.96,5.92 57.43,17.66l-19.88 51.5c-13.54,-7.61 -27.07,-11.42 -40.61,-11.42 -12.16,0 -23.05,3.7 -32.68,11 -9.62,7.29 -16.49,17.45 -20.62,30.46 -6.24,19.77 -9.3,41.45 -9.3,65.03l0 172.05 -55.84 0zm559.93 -106.6l57.74 7.61c-8.99,33.52 -25.8,59.64 -50.34,78.15 -24.53,18.5 -55.84,27.81 -94.01,27.81 -48.01,0 -86.08,-14.81 -114.21,-44.42 -28.13,-29.5 -42.19,-71.07 -42.19,-124.47 0,-55.2 14.17,-98.13 42.62,-128.59 28.44,-30.56 65.35,-45.79 110.72,-45.79 43.88,0 79.74,14.91 107.55,44.84 27.81,29.93 41.77,72.01 41.77,126.26 0,3.28 -0.11,8.25 -0.32,14.81l-245.23 0c2.12,36.06 12.27,63.77 30.67,82.91 18.3,19.14 41.24,28.76 68.63,28.76 20.41,0 37.86,-5.39 52.24,-16.18 14.48,-10.78 25.91,-28.02 34.37,-51.71zm-182.73 -89.47l183.37 0c-2.43,-27.7 -9.52,-48.43 -21.04,-62.28 -17.66,-21.47 -40.71,-32.25 -68.95,-32.25 -25.59,0 -47.06,8.56 -64.51,25.7 -17.34,17.13 -26.97,40.08 -28.87,68.84z"/>
   <path class="fil1 str0" d="M186.14 1146.92c0,-609.86 559.36,-1068.37 1111.03,-927.1 175.81,45.02 315.59,123.96 441.58,255.64 245.56,256.68 324.12,619.81 225.43,969.15 -47.48,168.06 -92.28,280.39 -167.17,434.71l-152.69 278.41c-43.48,72.5 -509.97,795.39 -547.55,824.19 -18.41,-14.11 -360.45,-527.41 -412.81,-609.55 -200.32,-314.24 -422.85,-684.36 -483.14,-1063.01 -7.19,-45.13 -14.67,-116 -14.67,-162.45zm-182.12 -50.79c0,322.29 52.34,451.89 161.34,726.52 109.85,276.74 340.24,618.45 501.57,865.94 26.8,41.12 51.87,78.11 80.29,119.21l196.56 289.68c35.89,56.58 88.23,157.47 140.83,157.47 79.71,0 75.02,-26.47 123.13,-93.46 121.47,-169.17 270.1,-410.75 393.81,-584.97l361.3 -612.63c105.52,-220.75 226.64,-514.56 226.64,-766.17 0,-208.66 -19.54,-362.35 -103.11,-539.8 -83.73,-177.8 -203.8,-330.42 -358.22,-444.42 -157.63,-116.37 -372.99,-209.48 -588.91,-209.48 -197.12,0 -344.61,22.62 -510.04,107.85 -60.72,31.29 -111.11,62.59 -163.89,101.62 -54.93,40.62 -93.34,75.55 -141.08,125.47 -93.07,97.34 -159.02,195.61 -217.12,318.97 -48.01,101.93 -103.11,286.93 -103.11,438.21z"/>
   <path class="fil2" d="M1150.4 2081.68c52.73,29.27 246.53,-29.59 304.67,-60.46 82.87,-43.99 142.37,-107.64 173.72,-214.6 70.78,-241.53 -139.18,-419.43 -251.13,-499.99 -95.65,-68.82 -410.22,-261.41 -457.04,-310.37 -170.5,-178.26 -84.22,-376.72 71.75,-414.99 77.02,-18.9 58,4.6 73.19,-26.49 -9.19,-18.74 -7.64,-20.16 -74.15,-13.58 -77.24,7.64 -161.49,25.93 -228.46,60.61 -84.16,43.58 -146.72,105.45 -180.18,207.43 -132.78,404.62 575.71,617.47 717.06,801.51 149.66,194.86 78.22,399.34 -84.97,437.38 -84.6,19.73 -59.22,-8.46 -64.45,33.55z"/>
   <path class="fil1" d="M1064.86 2081.68c-3.91,-41.6 23.44,-16.12 -71.08,-35.59 -276.54,-56.95 -301.08,-442.12 -302.41,-683.53 -0.26,-47.33 8.37,-58.88 -16.02,-88.85 -19.8,-24.33 -36.86,-38.75 -55.75,-57.26 -87.88,-86.09 -131.77,-175.71 -140.47,-305.57 -128.6,179.58 -117.29,599.21 -15.16,800.46 59.63,117.5 131,202.51 227.24,265.75 47.92,31.49 104.03,57.17 165.19,77.06 36.61,11.91 141.13,35.89 182.44,33.03l26.02 -5.51z"/>
   <path class="fil1" d="M1150.98 546.7c3.23,43.89 -23.16,15.55 67.56,38.66 207.76,52.92 262.26,303.17 281.48,493.17 5.7,56.3 3.38,164.42 12.16,209.6 12.09,62.19 215.07,153.45 214.72,447.03 65.13,-83.03 94.71,-270.56 96.84,-396.71 3.37,-199.56 -67.79,-460.58 -202.28,-590.69 -39.05,-37.79 -52.39,-54.4 -104.89,-88.99 -60.7,-39.99 -279.78,-148.93 -365.59,-112.07z"/>
   <path class="fil3" d="M2684.61 1195.55c0,-344.16 92.81,-613.88 277.94,-808.68 185.13,-194.8 423.91,-291.96 716.83,-291.96 191.9,0 364.46,45.92 518.66,137.28 153.71,91.36 271.17,218.97 351.89,382.83 80.72,163.38 121.33,348.99 121.33,556.36 0,210.26 -42.54,398.78 -127.61,564.57 -85.07,166.28 -205.43,291.95 -361.08,377.03 -156.13,85.56 -324.34,128.09 -504.64,128.09 -195.76,0 -370.26,-47.37 -524.46,-141.63 -153.71,-94.26 -270.68,-222.83 -349.96,-386.21 -79.27,-162.89 -118.91,-335.46 -118.91,-517.69zm284.22 4.84c0,249.9 67.19,446.63 201.57,590.19 134.38,143.56 303.07,215.58 506.09,215.58 206.88,0 376.54,-72.5 510.44,-217.51 133.41,-145.01 200.12,-350.93 200.12,-617.75 0,-168.69 -28.52,-316.12 -85.56,-441.8 -57.04,-125.67 -140.66,-223.31 -250.38,-292.44 -110.21,-69.12 -233.47,-103.92 -370.26,-103.92 -194.32,0 -361.56,66.71 -501.74,200.11 -140.17,133.41 -210.26,355.76 -210.26,667.54zm2044.17 1005.89l0 -2076.55 275.52 0 0 1832.93 1020.88 0 0 243.62 -1296.4 0zm1624.6 0l0 -2076.55 715.38 0c161.44,0 284.71,9.67 369.78,29.48 118.91,27.55 220.42,77.34 304.52,148.88 109.73,92.81 191.41,210.75 245.55,354.79 54.62,144.05 81.69,308.87 81.69,494.01 0,157.58 -18.37,297.27 -55.1,419.08 -36.74,121.81 -84.11,222.84 -141.63,302.59 -58,79.76 -120.84,142.59 -189.48,188.03 -68.15,45.92 -150.81,80.72 -247.48,104.4 -97.16,23.69 -208.34,35.29 -334.01,35.29l-749.22 0zm275.52 -243.62l442.77 0c136.79,0 244.1,-12.57 321.92,-38.19 77.82,-25.62 139.69,-61.39 186.1,-107.79 64.77,-65.26 115.53,-153.23 151.78,-263.44 36.25,-110.21 54.62,-243.62 54.62,-400.71 0,-217.51 -35.77,-384.76 -106.82,-501.73 -71.05,-116.98 -157.58,-195.28 -259.57,-234.92 -73.47,-28.52 -191.9,-42.54 -355.27,-42.54l-435.52 0 0 1589.32zm1729.01 -423.43l258.12 -23.2c12.08,104.41 40.6,189.96 85.56,257.15 44.95,66.71 114.56,120.84 208.81,162.41 94.26,41.09 200.6,61.87 318.54,61.87 104.89,0 197.21,-15.47 277.45,-46.89 80.24,-31.42 139.69,-74.44 178.85,-129.06 39.15,-54.62 58.97,-114.07 58.97,-177.88 0,-64.77 -18.85,-121.33 -56.55,-170.15 -37.7,-48.34 -100.06,-88.94 -187.06,-122.29 -55.59,-21.27 -178.85,-55.1 -369.78,-101.02 -190.93,-45.92 -324.34,-88.94 -400.71,-129.54 -99.09,-52.2 -172.56,-116.98 -220.9,-193.83 -48.82,-76.85 -72.99,-163.38 -72.99,-258.6 0,-105.37 29.97,-203.5 89.43,-294.37 59.45,-91.36 145.97,-160.48 260.54,-207.85 114.07,-47.37 241.2,-71.06 380.89,-71.06 153.71,0 289.54,24.65 407,74.44 117.46,49.31 207.85,122.29 271.17,218.97 63.32,96.19 97.16,205.43 101.99,327.24l-263.92 20.3c-14.02,-131 -61.87,-230.08 -143.56,-296.79 -81.69,-67.19 -202.53,-100.54 -362.04,-100.54 -166.28,0 -287.6,30.45 -363.49,91.36 -75.89,60.9 -114.07,134.38 -114.07,220.41 0,74.44 27.07,135.83 80.72,184.16 53.17,47.86 190.93,97.64 414.25,147.91 223.31,50.75 376.54,94.74 459.68,132.44 120.36,55.59 209.78,125.68 267.3,211.23 57.52,85.07 86.04,183.2 86.04,294.37 0,110.69 -31.42,214.13 -94.74,311.77 -63.32,97.64 -153.71,173.53 -272.13,227.67 -118.43,54.14 -251.35,81.21 -399.75,81.21 -187.54,0 -344.64,-27.55 -471.28,-82.17 -127.12,-54.62 -226.22,-136.79 -298.24,-247 -72.5,-109.72 -110.21,-233.95 -114.07,-372.68zm3503.46 -61.39l275.52 69.61c-57.52,225.73 -160.96,397.33 -310.32,515.75 -149.36,118.42 -332.07,177.88 -548.14,177.88 -223.31,0 -405.06,-45.44 -545.24,-136.79 -140.18,-90.88 -246.52,-222.84 -319.51,-395.4 -72.99,-173.05 -109.73,-358.18 -109.73,-556.36 0,-216.06 41.09,-404.58 123.74,-565.54 82.65,-160.96 200.11,-283.25 352.38,-366.87 152.26,-83.63 319.99,-125.2 502.7,-125.2 207.85,0 382.34,52.69 523.49,158.55 141.63,105.86 240.23,254.25 295.82,445.66l-269.72 63.81c-47.86,-150.81 -117.95,-261.02 -209.3,-329.66 -91.36,-69.12 -206.4,-103.44 -345.13,-103.44 -159.03,0 -292.44,38.19 -399.26,114.56 -106.82,76.37 -182.23,179.33 -225.25,307.9 -43.5,129.06 -65.25,261.99 -65.25,398.78 0,176.43 25.62,330.62 76.86,462.1 51.24,131.96 130.99,230.08 239.27,295.34 108.28,65.25 225.25,97.64 351.41,97.64 153.71,0 283.25,-44.47 389.59,-132.92 106.34,-88.94 178.36,-220.42 216.07,-395.4zm531.22 -282.29c0,-344.16 92.81,-613.88 277.94,-808.68 185.13,-194.8 423.91,-291.96 716.83,-291.96 191.9,0 364.46,45.92 518.66,137.28 153.71,91.36 271.17,218.97 351.89,382.83 80.72,163.38 121.33,348.99 121.33,556.36 0,210.26 -42.54,398.78 -127.61,564.57 -85.07,166.28 -205.43,291.95 -361.08,377.03 -156.13,85.56 -324.34,128.09 -504.64,128.09 -195.76,0 -370.26,-47.37 -524.46,-141.63 -153.71,-94.26 -270.68,-222.83 -349.96,-386.21 -79.27,-162.89 -118.91,-335.46 -118.91,-517.69zm284.22 4.84c0,249.9 67.19,446.63 201.57,590.19 134.38,143.56 303.07,215.58 506.09,215.58 206.88,0 376.54,-72.5 510.44,-217.51 133.41,-145.01 200.12,-350.93 200.12,-617.75 0,-168.69 -28.52,-316.12 -85.56,-441.8 -57.04,-125.67 -140.66,-223.31 -250.38,-292.44 -110.21,-69.12 -233.47,-103.92 -370.26,-103.92 -194.32,0 -361.56,66.71 -501.74,200.11 -140.17,133.41 -210.26,355.76 -210.26,667.54zm1971.66 -4.84c0,-344.16 92.81,-613.88 277.94,-808.68 185.13,-194.8 423.91,-291.96 716.83,-291.96 191.9,0 364.46,45.92 518.66,137.28 153.71,91.36 271.17,218.97 351.89,382.83 80.72,163.38 121.33,348.99 121.33,556.36 0,210.26 -42.54,398.78 -127.61,564.57 -85.07,166.28 -205.43,291.95 -361.08,377.03 -156.13,85.56 -324.34,128.09 -504.64,128.09 -195.76,0 -370.26,-47.37 -524.46,-141.63 -153.71,-94.26 -270.68,-222.83 -349.96,-386.21 -79.27,-162.89 -118.91,-335.46 -118.91,-517.69zm284.22 4.84c0,249.9 67.19,446.63 201.57,590.19 134.38,143.56 303.07,215.58 506.09,215.58 206.88,0 376.54,-72.5 510.44,-217.51 133.41,-145.01 200.12,-350.93 200.12,-617.75 0,-168.69 -28.52,-316.12 -85.56,-441.8 -57.04,-125.67 -140.66,-223.31 -250.38,-292.44 -110.21,-69.12 -233.47,-103.92 -370.26,-103.92 -194.32,0 -361.56,66.71 -501.74,200.11 -140.17,133.41 -210.26,355.76 -210.26,667.54zm2044.17 1005.89l0 -2076.55 275.52 0 0 1832.93 1020.88 0 0 243.62 -1296.4 0z"/>
  </g>
 </g>
</svg>
