<?xml version="1.0" encoding="UTF-8"?>
<svg id="Layer_1" data-name="Layer 1" xmlns="http://www.w3.org/2000/svg" viewBox="0 0 1080 1080">
  <defs>
    <style>
      .cls-1 {
        fill: #ea9b0f;
        stroke: #1dbac0;
        stroke-miterlimit: 10;
        stroke-width: .57px;
      }

      .cls-2 {
        fill: #fff;
        stroke-width: 0px;
      }
    </style>
  </defs>
  <circle class="cls-1" cx="542" cy="542" r="541.5"/>
  <path class="cls-2" d="M244.01,737.08c0-131.14,0-262.27,0-393.41,45.29-54.14,92.09-65.75,121.29-21.9,22.62,33.97,48.21,34.02,79.88,33.94,130.19-.3,260.38-.13,390.8-.13v429.02c-174.43,0-344.82,2-515.07-2.12-25.99-.63-51.29-29.56-76.9-45.41ZM363.08,645.91c0-88.23,2.76-179.22-2.21-269.8-1.06-19.28-30.22-37.02-46.43-55.47-15.45,17.17-43.38,33.73-44.26,51.61-4.52,92.08-2.1,184.51-2.1,273.65h94.99ZM742.46,452.97h-64.67c4.88,3.91,9.77,7.83,14.65,11.74-17.79,27.33-35.58,54.66-54.95,84.4-28.22-24.92-49.96-44.13-73.63-65.05-34.62,31.33-66.07,59.8-97.52,88.27,4.19,4.65,8.38,9.3,12.57,13.95,28.62-22.31,57.24-44.61,86.99-67.8,23.07,21.06,43.34,39.57,60.91,55.62,36.88-24.71,71.9-48.17,106.91-71.63,2.92,4.11,5.83,8.21,8.75,12.32v-61.82ZM449.56,659.65c.01,3.97.02,7.95.03,11.92h292.34c0-3.97.01-7.95.02-11.92h-292.39Z"/>
</svg>